<svg width="145" height="48" viewBox="0 0 145 48" fill="none" xmlns="http://www.w3.org/2000/svg">
<rect x="0.941406" y="0.5" width="142.664" height="47" rx="7.5" fill="black"/>
<path d="M20.8863 43.125C20.5816 43.125 20.2843 43.1211 19.982 43.1143C19.3558 43.1061 18.731 43.0516 18.1128 42.9512C17.5364 42.8519 16.978 42.6673 16.4561 42.4033C15.9389 42.1415 15.4673 41.7983 15.0591 41.3867C14.645 40.98 14.3003 40.5082 14.0386 39.9902C13.774 39.4688 13.5909 38.9099 13.4956 38.333C13.3927 37.7131 13.3371 37.0863 13.3291 36.458C13.3228 36.2471 13.3145 35.5449 13.3145 35.5449V12.4443C13.3145 12.4443 13.3233 11.7529 13.3291 11.5498C13.3368 10.9225 13.3921 10.2967 13.4947 9.67773C13.5901 9.09925 13.7734 8.53875 14.0381 8.01563C14.2989 7.49794 14.6417 7.02586 15.0533 6.61768C15.4644 6.20562 15.9376 5.8606 16.4556 5.59521C16.9764 5.33209 17.5337 5.14873 18.1089 5.05127C18.7291 4.94984 19.3561 4.895 19.9844 4.88721L20.8868 4.875H123.655L124.568 4.8877C125.191 4.8951 125.812 4.94945 126.427 5.05029C127.008 5.14898 127.571 5.33362 128.098 5.59814C129.136 6.13299 129.98 6.97916 130.513 8.01807C130.773 8.53758 130.954 9.09351 131.048 9.66699C131.152 10.291 131.21 10.9217 131.222 11.5542C131.225 11.8374 131.225 12.1416 131.225 12.4443C131.233 12.8193 131.233 13.1763 131.233 13.5361V34.4648C131.233 34.8281 131.233 35.1826 131.225 35.54C131.225 35.8652 131.225 36.1631 131.221 36.4697C131.209 37.0909 131.152 37.7104 131.05 38.3232C130.957 38.9043 130.774 39.4675 130.51 39.9932C130.246 40.5056 129.903 40.9733 129.494 41.3789C129.086 41.7927 128.613 42.1379 128.095 42.4014C127.57 42.6674 127.007 42.8527 126.427 42.9512C125.809 43.0522 125.184 43.1067 124.558 43.1143C124.265 43.1211 123.958 43.125 123.66 43.125L122.576 43.127L20.8863 43.125Z" fill="black"/>
<path d="M37.2094 24.3006C37.2202 23.4659 37.4419 22.6475 37.8539 21.9216C38.2659 21.1956 38.8549 20.5857 39.566 20.1485C39.1142 19.5034 38.5183 18.9724 37.8255 18.5979C37.1326 18.2233 36.362 18.0155 35.5748 17.9908C33.8956 17.8146 32.2676 18.9957 31.4119 18.9957C30.5397 18.9957 29.2222 18.0083 27.8034 18.0375C26.8857 18.0672 25.9914 18.334 25.2075 18.8121C24.4236 19.2901 23.777 19.9631 23.3305 20.7654C21.3965 24.1138 22.8391 29.0349 24.6917 31.7415C25.6186 33.0668 26.7019 34.5473 28.1193 34.4948C29.5064 34.4372 30.0244 33.6103 31.6987 33.6103C33.3575 33.6103 33.8435 34.4948 35.2897 34.4614C36.7781 34.4372 37.7159 33.1302 38.6102 31.7923C39.2762 30.8479 39.7887 29.8042 40.1287 28.6997C39.264 28.334 38.526 27.7218 38.0069 26.9395C37.4878 26.1572 37.2104 25.2394 37.2094 24.3006Z" fill="white"/>
<path d="M34.477 16.2108C35.2886 15.2366 35.6884 13.9844 35.5915 12.7202C34.3517 12.8504 33.2065 13.443 32.384 14.3798C31.9818 14.8375 31.6738 15.3699 31.4776 15.9467C31.2813 16.5235 31.2007 17.1333 31.2403 17.7412C31.8604 17.7476 32.4739 17.6132 33.0346 17.3481C33.5952 17.083 34.0884 16.6942 34.477 16.2108Z" fill="white"/>
<path d="M54.7422 31.1397H50.0088L48.8721 34.4961H46.8672L51.3506 22.0781H53.4336L57.917 34.4961H55.8779L54.7422 31.1397ZM50.499 29.5908H54.251L52.4014 24.1436H52.3496L50.499 29.5908Z" fill="white"/>
<path d="M67.5987 29.9697C67.5987 32.7832 66.0928 34.5908 63.8203 34.5908C63.2447 34.6209 62.6722 34.4883 62.1684 34.2082C61.6646 33.928 61.2499 33.5117 60.9717 33.0068H60.9287V37.4912H59.0703V25.4423H60.8692V26.9482H60.9034C61.1943 26.4457 61.616 26.0316 62.1237 25.7497C62.6313 25.4679 63.2058 25.3289 63.7862 25.3476C66.084 25.3476 67.5987 27.164 67.5987 29.9697ZM65.6885 29.9697C65.6885 28.1367 64.7412 26.9316 63.2959 26.9316C61.876 26.9316 60.9209 28.1621 60.9209 29.9697C60.9209 31.7939 61.876 33.0156 63.2959 33.0156C64.7412 33.0156 65.6885 31.8193 65.6885 29.9697Z" fill="white"/>
<path d="M77.5635 29.9697C77.5635 32.7832 76.0576 34.5908 73.7852 34.5908C73.2095 34.6209 72.637 34.4883 72.1332 34.2081C71.6294 33.928 71.2147 33.5117 70.9366 33.0068H70.8936V37.4912H69.0352V25.4423H70.834V26.9482H70.8682C71.1591 26.4457 71.5808 26.0315 72.0885 25.7497C72.5961 25.4679 73.1707 25.3289 73.751 25.3476C76.0489 25.3476 77.5635 27.164 77.5635 29.9697ZM75.6533 29.9697C75.6533 28.1367 74.7061 26.9316 73.2608 26.9316C71.8408 26.9316 70.8858 28.1621 70.8858 29.9697C70.8858 31.7939 71.8408 33.0156 73.2608 33.0156C74.7061 33.0156 75.6534 31.8193 75.6534 29.9697H75.6533Z" fill="white"/>
<path d="M84.1504 31.0362C84.2881 32.2676 85.4844 33.0762 87.1192 33.0762C88.6856 33.0762 89.8125 32.2676 89.8125 31.1572C89.8125 30.1934 89.1328 29.6162 87.5235 29.2207L85.9141 28.833C83.6338 28.2822 82.5752 27.2158 82.5752 25.4854C82.5752 23.3428 84.4424 21.8711 87.0938 21.8711C89.7178 21.8711 91.5166 23.3428 91.5772 25.4854H89.7012C89.5889 24.2461 88.5645 23.4981 87.0674 23.4981C85.5703 23.4981 84.5459 24.2549 84.5459 25.3565C84.5459 26.2344 85.2002 26.751 86.8008 27.1465L88.1689 27.4824C90.7168 28.0849 91.7754 29.1084 91.7754 30.9248C91.7754 33.248 89.9248 34.7031 86.9814 34.7031C84.2275 34.7031 82.3682 33.2822 82.248 31.0361L84.1504 31.0362Z" fill="white"/>
<path d="M95.7851 23.2998V25.4424H97.5068V26.9141H95.7851V31.9053C95.7851 32.6807 96.1299 33.042 96.8867 33.042C97.0911 33.0384 97.2952 33.0241 97.498 32.999V34.4619C97.1578 34.5255 96.8119 34.5543 96.4658 34.5478C94.6328 34.5478 93.918 33.8593 93.918 32.1035V26.9141H92.6016V25.4424H93.9179V23.2998H95.7851Z" fill="white"/>
<path d="M98.5059 29.9697C98.5059 27.1211 100.184 25.3311 102.8 25.3311C105.425 25.3311 107.095 27.1211 107.095 29.9697C107.095 32.8262 105.434 34.6084 102.8 34.6084C100.167 34.6084 98.5059 32.8262 98.5059 29.9697ZM105.201 29.9697C105.201 28.0156 104.306 26.8623 102.8 26.8623C101.294 26.8623 100.399 28.0244 100.399 29.9697C100.399 31.9316 101.294 33.0762 102.8 33.0762C104.306 33.0762 105.201 31.9316 105.201 29.9697H105.201Z" fill="white"/>
<path d="M108.625 25.4425H110.397V26.9835H110.44C110.56 26.5022 110.842 26.0769 111.239 25.779C111.636 25.4811 112.123 25.3288 112.618 25.3478C112.832 25.347 113.046 25.3703 113.255 25.4171V27.1554C112.985 27.0728 112.703 27.0348 112.42 27.0431C112.15 27.0321 111.881 27.0797 111.631 27.1826C111.381 27.2855 111.156 27.4412 110.973 27.6391C110.789 27.837 110.65 28.0724 110.565 28.3291C110.481 28.5857 110.453 28.8576 110.483 29.1261V34.4962H108.625L108.625 25.4425Z" fill="white"/>
<path d="M121.823 31.8369C121.573 33.4805 119.973 34.6084 117.925 34.6084C115.291 34.6084 113.656 32.8437 113.656 30.0127C113.656 27.1729 115.3 25.3311 117.847 25.3311C120.352 25.3311 121.927 27.0518 121.927 29.7969V30.4336H115.532V30.5459C115.503 30.8791 115.544 31.2148 115.655 31.5306C115.765 31.8464 115.941 32.1352 116.171 32.3778C116.402 32.6203 116.681 32.8111 116.991 32.9374C117.3 33.0637 117.634 33.1226 117.968 33.1103C118.407 33.1515 118.848 33.0498 119.224 32.8203C119.601 32.5909 119.894 32.246 120.059 31.8369L121.823 31.8369ZM115.541 29.1348H120.067C120.084 28.8352 120.039 28.5354 119.934 28.2541C119.829 27.9729 119.668 27.7164 119.459 27.5006C119.251 27.2849 119 27.1145 118.722 27.0003C118.445 26.8861 118.147 26.8305 117.847 26.8369C117.544 26.8351 117.244 26.8933 116.964 27.008C116.684 27.1227 116.429 27.2918 116.215 27.5054C116.001 27.7191 115.831 27.973 115.715 28.2527C115.599 28.5323 115.54 28.8321 115.541 29.1348V29.1348Z" fill="white"/>
<path d="M50.2686 12.7309C50.6582 12.7029 51.0491 12.7618 51.4132 12.9032C51.7774 13.0447 52.1055 13.2651 52.3741 13.5488C52.6427 13.8324 52.845 14.1721 52.9664 14.5434C53.0878 14.9146 53.1253 15.3082 53.0762 15.6957C53.0762 17.602 52.0459 18.6977 50.2686 18.6977H48.1133V12.7309H50.2686ZM49.04 17.8539H50.165C50.4434 17.8705 50.722 17.8249 50.9806 17.7203C51.2391 17.6157 51.4711 17.4547 51.6596 17.2491C51.8481 17.0436 51.9884 16.7986 52.0702 16.532C52.1521 16.2653 52.1735 15.9838 52.1328 15.7079C52.1705 15.4331 52.147 15.1533 52.0638 14.8886C51.9807 14.624 51.8401 14.381 51.652 14.177C51.464 13.9731 51.2331 13.8133 50.976 13.7091C50.719 13.6048 50.442 13.5587 50.165 13.5741H49.04V17.8539Z" fill="white"/>
<path d="M54.1233 16.4443C54.095 16.1484 54.1289 15.8498 54.2227 15.5677C54.3166 15.2857 54.4683 15.0263 54.6682 14.8063C54.8682 14.5864 55.1119 14.4106 55.3838 14.2903C55.6556 14.17 55.9496 14.1079 56.2469 14.1079C56.5441 14.1079 56.8381 14.17 57.11 14.2903C57.3818 14.4106 57.6255 14.5864 57.8255 14.8063C58.0254 15.0263 58.1772 15.2857 58.271 15.5677C58.3649 15.8498 58.3987 16.1484 58.3704 16.4443C58.3992 16.7405 58.3658 17.0395 58.2722 17.322C58.1786 17.6045 58.0269 17.8644 57.827 18.0848C57.627 18.3052 57.3831 18.4813 57.1109 18.6019C56.8388 18.7224 56.5445 18.7847 56.2469 18.7847C55.9492 18.7847 55.6549 18.7224 55.3828 18.6019C55.1107 18.4813 54.8668 18.3052 54.6668 18.0848C54.4668 17.8644 54.3151 17.6045 54.2215 17.322C54.1279 17.0395 54.0945 16.7405 54.1233 16.4443ZM57.4563 16.4443C57.4563 15.4682 57.0178 14.8974 56.2483 14.8974C55.4759 14.8974 55.0413 15.4682 55.0413 16.4443C55.0413 17.4282 55.4759 17.9946 56.2483 17.9946C57.0179 17.9946 57.4563 17.4243 57.4563 16.4443H57.4563Z" fill="white"/>
<path d="M64.0156 18.6978H63.0938L62.1631 15.3813H62.0928L61.166 18.6978H60.2529L59.0117 14.1948H59.9131L60.7197 17.6308H60.7861L61.7119 14.1948H62.5645L63.4902 17.6308H63.5606L64.3633 14.1948H65.2519L64.0156 18.6978Z" fill="white"/>
<path d="M66.2949 14.1949H67.1504V14.9102H67.2168C67.3295 14.6533 67.5195 14.4379 67.7603 14.2941C68.0012 14.1503 68.2809 14.0852 68.5606 14.1079C68.7796 14.0915 68.9996 14.1245 69.2042 14.2046C69.4088 14.2847 69.5928 14.4098 69.7425 14.5707C69.8922 14.7315 70.0037 14.924 70.0689 15.1338C70.1341 15.3436 70.1513 15.5654 70.1191 15.7827V18.6977H69.2305V16.0059C69.2305 15.2823 68.916 14.9224 68.2588 14.9224C68.11 14.9155 67.9615 14.9408 67.8235 14.9966C67.6854 15.0525 67.5611 15.1375 67.4589 15.2459C67.3568 15.3543 67.2793 15.4834 67.2318 15.6246C67.1843 15.7657 67.1678 15.9154 67.1836 16.0635V18.6978H66.2949L66.2949 14.1949Z" fill="white"/>
<path d="M71.5352 12.437H72.4238V18.6978H71.5352V12.437Z" fill="white"/>
<path d="M73.6604 16.4444C73.6321 16.1484 73.666 15.8499 73.7599 15.5678C73.8537 15.2857 74.0055 15.0263 74.2055 14.8064C74.4054 14.5864 74.6492 14.4106 74.921 14.2903C75.1929 14.17 75.4869 14.1079 75.7842 14.1079C76.0815 14.1079 76.3755 14.17 76.6474 14.2903C76.9192 14.4106 77.163 14.5864 77.3629 14.8064C77.5629 15.0263 77.7147 15.2857 77.8085 15.5678C77.9024 15.8499 77.9363 16.1484 77.908 16.4444C77.9368 16.7406 77.9033 17.0396 77.8097 17.3221C77.7161 17.6046 77.5644 17.8645 77.3644 18.0849C77.1643 18.3053 76.9204 18.4814 76.6483 18.6019C76.3762 18.7225 76.0818 18.7847 75.7842 18.7847C75.4866 18.7847 75.1922 18.7225 74.9201 18.6019C74.648 18.4814 74.404 18.3053 74.204 18.0849C74.004 17.8645 73.8523 17.6046 73.7587 17.3221C73.6651 17.0396 73.6316 16.7406 73.6604 16.4444ZM76.9934 16.4444C76.9934 15.4683 76.5549 14.8975 75.7854 14.8975C75.013 14.8975 74.5784 15.4683 74.5784 16.4444C74.5784 17.4283 75.013 17.9947 75.7854 17.9947C76.5549 17.9947 76.9934 17.4244 76.9934 16.4444H76.9934Z" fill="white"/>
<path d="M78.8438 17.4243C78.8438 16.6138 79.4473 16.1465 80.5185 16.0801L81.7383 16.0098V15.6211C81.7383 15.1455 81.4238 14.877 80.8164 14.877C80.3203 14.877 79.9766 15.0591 79.8779 15.3774H79.0176C79.1084 14.604 79.8359 14.1079 80.8574 14.1079C81.9863 14.1079 82.623 14.6699 82.623 15.6211V18.6978H81.7676V18.0649H81.6973C81.5545 18.2919 81.3541 18.477 81.1165 18.6012C80.8789 18.7254 80.6126 18.7843 80.3447 18.7719C80.1557 18.7916 79.9646 18.7714 79.7839 18.7127C79.6031 18.654 79.4367 18.5581 79.2952 18.4311C79.1538 18.3042 79.0406 18.149 78.9628 17.9756C78.8851 17.8021 78.8445 17.6144 78.8438 17.4243ZM81.7383 17.0395V16.6631L80.6387 16.7334C80.0186 16.7749 79.7373 16.9858 79.7373 17.3828C79.7373 17.7881 80.0889 18.0239 80.5723 18.0239C80.7139 18.0382 80.857 18.0239 80.993 17.9819C81.129 17.9398 81.2552 17.8707 81.364 17.7789C81.4728 17.6871 81.562 17.5743 81.6263 17.4473C81.6906 17.3202 81.7287 17.1816 81.7383 17.0395Z" fill="white"/>
<path d="M83.791 16.4444C83.791 15.0215 84.5225 14.1201 85.6602 14.1201C85.9416 14.1072 86.2209 14.1746 86.4654 14.3145C86.7099 14.4544 86.9096 14.661 87.041 14.9101H87.1074V12.437H87.9961V18.6978H87.1445V17.9863H87.0742C86.9326 18.2338 86.726 18.4378 86.4768 18.5763C86.2275 18.7148 85.9451 18.7825 85.6602 18.772C84.5147 18.772 83.791 17.8706 83.791 16.4444ZM84.709 16.4444C84.709 17.3994 85.1592 17.9741 85.9121 17.9741C86.6611 17.9741 87.1241 17.3911 87.1241 16.4483C87.1241 15.5098 86.6563 14.9185 85.9121 14.9185C85.1641 14.9185 84.709 15.4971 84.709 16.4444H84.709Z" fill="white"/>
<path d="M91.6722 16.4443C91.6438 16.1484 91.6777 15.8498 91.7715 15.5677C91.8654 15.2857 92.0171 15.0263 92.2171 14.8063C92.417 14.5864 92.6607 14.4106 92.9326 14.2903C93.2044 14.17 93.4984 14.1079 93.7957 14.1079C94.093 14.1079 94.3869 14.17 94.6588 14.2903C94.9306 14.4106 95.1744 14.5864 95.3743 14.8063C95.5742 15.0263 95.726 15.2857 95.8198 15.5677C95.9137 15.8498 95.9475 16.1484 95.9192 16.4443C95.9481 16.7405 95.9146 17.0395 95.821 17.322C95.7274 17.6045 95.5758 17.8644 95.3758 18.0848C95.1758 18.3052 94.9319 18.4813 94.6598 18.6019C94.3876 18.7224 94.0933 18.7847 93.7957 18.7847C93.4981 18.7847 93.2037 18.7224 92.9316 18.6019C92.6595 18.4813 92.4156 18.3052 92.2156 18.0848C92.0156 17.8644 91.8639 17.6045 91.7703 17.322C91.6768 17.0395 91.6433 16.7405 91.6722 16.4443ZM95.0052 16.4443C95.0052 15.4682 94.5667 14.8974 93.7972 14.8974C93.0247 14.8974 92.5902 15.4682 92.5902 16.4443C92.5902 17.4282 93.0247 17.9946 93.7972 17.9946C94.5667 17.9946 95.0052 17.4243 95.0052 16.4443Z" fill="white"/>
<path d="M97.1113 14.1949H97.9668V14.9102H98.0332C98.1459 14.6533 98.3359 14.4379 98.5767 14.2941C98.8176 14.1503 99.0973 14.0852 99.377 14.1079C99.5961 14.0915 99.8161 14.1245 100.021 14.2046C100.225 14.2847 100.409 14.4098 100.559 14.5707C100.709 14.7315 100.82 14.924 100.885 15.1338C100.951 15.3436 100.968 15.5654 100.936 15.7827V18.6977H100.047V16.0059C100.047 15.2823 99.7324 14.9224 99.0752 14.9224C98.9264 14.9155 98.7779 14.9408 98.6399 14.9966C98.5018 15.0525 98.3775 15.1375 98.2754 15.2459C98.1732 15.3543 98.0957 15.4834 98.0482 15.6246C98.0007 15.7657 97.9842 15.9154 98 16.0635V18.6978H97.1113V14.1949Z" fill="white"/>
<path d="M105.958 13.0737V14.2153H106.934V14.9639H105.958V17.2793C105.958 17.751 106.152 17.9575 106.595 17.9575C106.708 17.9572 106.821 17.9503 106.934 17.937V18.6772C106.774 18.7058 106.612 18.721 106.45 18.7226C105.462 18.7226 105.068 18.375 105.068 17.5068V14.9638H104.354V14.2153H105.068V13.0737H105.958Z" fill="white"/>
<path d="M108.146 12.437H109.027V14.9185H109.098C109.216 14.6591 109.411 14.4425 109.657 14.2982C109.902 14.1539 110.187 14.0888 110.471 14.1118C110.689 14.1 110.907 14.1364 111.109 14.2184C111.311 14.3004 111.493 14.4261 111.641 14.5864C111.789 14.7468 111.9 14.9378 111.966 15.146C112.031 15.3541 112.05 15.5742 112.021 15.7905V18.6978H111.132V16.0098C111.132 15.2905 110.797 14.9263 110.169 14.9263C110.016 14.9137 109.863 14.9347 109.719 14.9878C109.575 15.0408 109.445 15.1247 109.337 15.2334C109.229 15.3421 109.146 15.4732 109.094 15.6173C109.042 15.7614 109.022 15.9152 109.035 16.0679V18.6977H108.147L108.146 12.437Z" fill="white"/>
<path d="M117.203 17.482C117.082 17.8935 116.82 18.2495 116.464 18.4877C116.107 18.7258 115.678 18.831 115.252 18.7847C114.955 18.7926 114.66 18.7357 114.388 18.6182C114.115 18.5007 113.871 18.3253 113.674 18.1041C113.476 17.883 113.328 17.6214 113.242 17.3376C113.155 17.0538 113.131 16.7545 113.172 16.4605C113.132 16.1656 113.156 15.8657 113.243 15.581C113.329 15.2964 113.476 15.0336 113.673 14.8105C113.87 14.5874 114.112 14.4093 114.384 14.2881C114.656 14.1669 114.95 14.1054 115.248 14.108C116.501 14.108 117.257 14.964 117.257 16.378V16.6881H114.077V16.7379C114.063 16.9031 114.084 17.0695 114.138 17.2262C114.192 17.383 114.278 17.5267 114.391 17.6481C114.504 17.7696 114.641 17.8661 114.793 17.9315C114.946 17.9969 115.11 18.0297 115.276 18.0279C115.489 18.0534 115.704 18.0151 115.895 17.9179C116.085 17.8207 116.243 17.669 116.347 17.482L117.203 17.482ZM114.077 16.0308H116.351C116.362 15.8797 116.342 15.7279 116.291 15.5852C116.24 15.4425 116.16 15.312 116.055 15.2021C115.951 15.0923 115.825 15.0055 115.685 14.9473C115.545 14.8891 115.394 14.8609 115.243 14.8643C115.089 14.8624 114.937 14.8913 114.794 14.9492C114.652 15.0072 114.523 15.093 114.414 15.2017C114.305 15.3104 114.219 15.4398 114.161 15.5822C114.104 15.7246 114.075 15.8771 114.077 16.0308H114.077Z" fill="white"/>
<rect x="0.941406" y="0.5" width="142.664" height="47" rx="7.5" stroke="#A8A8A8"/>
</svg>
